<svg width="54" height="47" viewBox="0 0 54 47" fill="none" xmlns="http://www.w3.org/2000/svg">
<g filter="url(#filter0_d)">
<path d="M4.93308 23.7517C4.41776 23.0145 5.03152 22.1748 6.30397 21.8763L21.5102 18.3084C22.7826 18.0098 24.2319 18.3654 24.7472 19.1026L34.4513 32.9848C34.9666 33.722 34.3529 34.5617 33.0804 34.8603L17.8742 38.4282C16.6018 38.7267 15.1525 38.3711 14.6372 37.6339L4.93308 23.7517Z" fill="#FFF6E0"/>
</g>
<path fill-rule="evenodd" clip-rule="evenodd" d="M21.2493 19.2793L7.65758 22.4684C6.63962 22.7073 6.14861 23.379 6.56087 23.9687L15.5456 36.8218C15.9578 37.4116 17.1172 37.6961 18.1352 37.4572L31.7269 34.2681C32.7449 34.0293 33.2359 33.3576 32.8236 32.7678L23.8389 19.9147C23.4267 19.3249 22.2672 19.0405 21.2493 19.2793ZM7.47096 22.2014C6.19851 22.5 5.58475 23.3397 6.10008 24.0769L15.0848 36.93C15.6001 37.6672 17.0494 38.0228 18.3218 37.7242L31.9135 34.5351C33.186 34.2365 33.7997 33.3969 33.2844 32.6597L24.2997 19.8066C23.7844 19.0694 22.3351 18.7138 21.0627 19.0123L7.47096 22.2014Z" fill="#AF9A65"/>
<g filter="url(#filter1_d)">
<path d="M14.7002 18.6945C14.7002 17.8991 15.8131 17.2543 17.1859 17.2543H33.5918C34.9647 17.2543 36.0776 17.8991 36.0776 18.6945V33.672C36.0776 34.4673 34.9647 35.1121 33.5918 35.1121H17.1859C15.8131 35.1121 14.7002 34.4673 14.7002 33.672V18.6945Z" fill="#FFF6E0"/>
</g>
<path fill-rule="evenodd" clip-rule="evenodd" d="M32.7208 18.0975H18.0568C16.9585 18.0975 16.0682 18.6134 16.0682 19.2497V33.1168C16.0682 33.7531 16.9585 34.2689 18.0568 34.2689H32.7208C33.8191 34.2689 34.7094 33.7531 34.7094 33.1168V19.2497C34.7094 18.6134 33.8191 18.0975 32.7208 18.0975ZM18.0568 17.8095C16.684 17.8095 15.571 18.4543 15.571 19.2497V33.1168C15.571 33.9122 16.6839 34.557 18.0568 34.557H32.7208C34.0937 34.557 35.2066 33.9122 35.2066 33.1168V19.2497C35.2066 18.4543 34.0937 17.8095 32.7208 17.8095H18.0568Z" fill="#AF9A65"/>
<g filter="url(#filter2_d)">
<path d="M30.4799 17.9632C31.0998 17.2535 32.5954 16.9694 33.8203 17.3286L48.4581 21.6209C49.6829 21.9801 50.1733 22.8465 49.5534 23.5562L37.8791 36.9195C37.2591 37.6292 35.7636 37.9133 34.5387 37.5541L19.9009 33.2618C18.676 32.9026 18.1856 32.0362 18.8056 31.3265L30.4799 17.9632Z" fill="#FFF6E0"/>
</g>
<path fill-rule="evenodd" clip-rule="evenodd" d="M47.0239 22.1454L33.9402 18.3088C32.9603 18.0215 31.7639 18.2487 31.2679 18.8165L20.4591 31.1891C19.9631 31.7568 20.3554 32.45 21.3354 32.7373L34.419 36.5739C35.3989 36.8613 36.5953 36.634 37.0913 36.0663L47.9002 23.6936C48.3961 23.1259 48.0038 22.4327 47.0239 22.1454ZM34.1647 18.0518C32.9399 17.6926 31.4443 17.9767 30.8244 18.6864L20.0155 31.059C19.3956 31.7687 19.886 32.6352 21.1108 32.9943L34.1945 36.8309C35.4194 37.1901 36.9149 36.906 37.5349 36.1963L48.3437 23.8237C48.9637 23.114 48.4733 22.2476 47.2484 21.8884L34.1647 18.0518Z" fill="#AF9A65"/>
<g filter="url(#filter3_d)">
<path d="M25.8542 17.8017C26.948 17.8017 27.8638 17.4358 28.6014 16.7039C29.3645 15.9468 29.7461 15.0256 29.7461 13.9404C29.7461 12.8299 29.5935 11.7447 29.2882 10.6848C28.4997 11.7195 27.2406 12.4135 25.5108 12.7668C23.9846 13.0949 23.2215 13.9278 23.2215 15.2653C23.2215 15.972 23.4759 16.5777 23.9846 17.0824C24.4934 17.5619 25.1166 17.8017 25.8542 17.8017ZM27.3042 3C28.9321 4.31234 30.2167 5.91491 31.1579 7.80771C32.1245 9.67528 32.6078 11.669 32.6078 13.789C32.6078 15.5556 31.9718 17.0698 30.7 18.3317C29.4281 19.5935 27.8892 20.2245 26.0832 20.2245C24.2772 20.2245 22.7382 19.5935 21.4664 18.3317C20.1945 17.0698 19.5586 15.5556 19.5586 13.789C19.5586 11.0633 20.4362 8.66578 22.1913 6.59632V6.89917C22.1913 7.732 22.4711 8.43865 23.0307 9.0191C23.5904 9.59956 24.2899 9.88979 25.1293 9.88979C25.9433 9.88979 26.6046 9.61218 27.1134 9.05696C27.6476 8.4765 27.9146 7.75724 27.9146 6.89917C27.9146 6.39442 27.8638 5.81396 27.762 5.15779C27.6603 4.50162 27.5585 3.98426 27.4568 3.6057L27.3042 3Z" fill="#AF9A65"/>
<path d="M31.1579 7.80771L31.6056 7.5851C30.6327 5.62847 29.3027 3.96883 27.618 2.61073L26.454 1.67245L26.8193 3.12217L26.9719 3.72787L26.9719 3.72788L26.9739 3.73548C27.0688 4.08866 27.1673 4.58571 27.2679 5.23441C27.3669 5.87264 27.4146 6.42662 27.4146 6.89917C27.4146 7.64378 27.1869 8.23867 26.7455 8.71838L26.7447 8.71918C26.339 9.16203 25.8158 9.38979 25.1293 9.38979C24.4194 9.38979 23.8518 9.15037 23.3907 8.67207C22.9242 8.18816 22.6913 7.60729 22.6913 6.89917V6.59632V5.23376L21.81 6.27291C19.9779 8.43316 19.0586 10.9455 19.0586 13.789C19.0586 15.691 19.7492 17.3324 21.1142 18.6866C22.4806 20.0422 24.1464 20.7245 26.0832 20.7245C28.0199 20.7245 29.6858 20.0422 31.0521 18.6866C32.4171 17.3324 33.1078 15.691 33.1078 13.789C33.1078 11.5897 32.6056 9.51708 31.6019 7.57788L31.1579 7.80771ZM31.1579 7.80771C30.3474 6.17781 29.2823 4.76311 27.9626 3.56362L21.7032 7.21069C20.2735 9.13619 19.5586 11.3289 19.5586 13.789C19.5586 15.5556 20.1945 17.0698 21.4664 18.3317C22.7382 19.5935 24.2772 20.2245 26.0832 20.2245C27.8892 20.2245 29.4281 19.5935 30.7 18.3317C31.9718 17.0698 32.6078 15.5556 32.6078 13.789C32.6078 11.669 32.1245 9.67528 31.1579 7.80771ZM28.2493 16.3489C27.6106 16.9826 26.8238 17.3017 25.8542 17.3017C25.2387 17.3017 24.7418 17.1069 24.3322 16.723C23.9197 16.3116 23.7215 15.8345 23.7215 15.2653C23.7215 14.6972 23.8806 14.283 24.1625 13.9753C24.4514 13.66 24.9154 13.4066 25.6135 13.2562C27.0166 12.9693 28.1654 12.4585 29.0227 11.7C29.1716 12.4342 29.2461 13.1809 29.2461 13.9404C29.2461 14.8937 28.9168 15.6867 28.2493 16.3489Z" stroke="#FFF6E0"/>
</g>
<defs>
<filter id="filter0_d" x="0.75061" y="18.2027" width="37.8831" height="28.3312" filterUnits="userSpaceOnUse" color-interpolation-filters="sRGB">
<feFlood flood-opacity="0" result="BackgroundImageFix"/>
<feColorMatrix in="SourceAlpha" type="matrix" values="0 0 0 0 0 0 0 0 0 0 0 0 0 0 0 0 0 0 127 0"/>
<feOffset dy="4"/>
<feGaussianBlur stdDeviation="2"/>
<feColorMatrix type="matrix" values="0 0 0 0 0 0 0 0 0 0 0 0 0 0 0 0 0 0 0.25 0"/>
<feBlend mode="normal" in2="BackgroundImageFix" result="effect1_dropShadow"/>
<feBlend mode="normal" in="SourceGraphic" in2="effect1_dropShadow" result="shape"/>
</filter>
<filter id="filter1_d" x="10.7002" y="17.2543" width="29.3774" height="25.8578" filterUnits="userSpaceOnUse" color-interpolation-filters="sRGB">
<feFlood flood-opacity="0" result="BackgroundImageFix"/>
<feColorMatrix in="SourceAlpha" type="matrix" values="0 0 0 0 0 0 0 0 0 0 0 0 0 0 0 0 0 0 127 0"/>
<feOffset dy="4"/>
<feGaussianBlur stdDeviation="2"/>
<feColorMatrix type="matrix" values="0 0 0 0 0 0 0 0 0 0 0 0 0 0 0 0 0 0 0.25 0"/>
<feBlend mode="normal" in2="BackgroundImageFix" result="effect1_dropShadow"/>
<feBlend mode="normal" in="SourceGraphic" in2="effect1_dropShadow" result="shape"/>
</filter>
<filter id="filter2_d" x="14.5371" y="17.1731" width="39.2846" height="28.5365" filterUnits="userSpaceOnUse" color-interpolation-filters="sRGB">
<feFlood flood-opacity="0" result="BackgroundImageFix"/>
<feColorMatrix in="SourceAlpha" type="matrix" values="0 0 0 0 0 0 0 0 0 0 0 0 0 0 0 0 0 0 127 0"/>
<feOffset dy="4"/>
<feGaussianBlur stdDeviation="2"/>
<feColorMatrix type="matrix" values="0 0 0 0 0 0 0 0 0 0 0 0 0 0 0 0 0 0 0.25 0"/>
<feBlend mode="normal" in2="BackgroundImageFix" result="effect1_dropShadow"/>
<feBlend mode="normal" in="SourceGraphic" in2="effect1_dropShadow" result="shape"/>
</filter>
<filter id="filter3_d" x="14.5586" y="0.34491" width="23.0492" height="28.8796" filterUnits="userSpaceOnUse" color-interpolation-filters="sRGB">
<feFlood flood-opacity="0" result="BackgroundImageFix"/>
<feColorMatrix in="SourceAlpha" type="matrix" values="0 0 0 0 0 0 0 0 0 0 0 0 0 0 0 0 0 0 127 0"/>
<feOffset dy="4"/>
<feGaussianBlur stdDeviation="2"/>
<feColorMatrix type="matrix" values="0 0 0 0 0 0 0 0 0 0 0 0 0 0 0 0 0 0 0.25 0"/>
<feBlend mode="normal" in2="BackgroundImageFix" result="effect1_dropShadow"/>
<feBlend mode="normal" in="SourceGraphic" in2="effect1_dropShadow" result="shape"/>
</filter>
</defs>
</svg>
