<svg width="54" height="23" viewBox="0 0 54 23" fill="none" xmlns="http://www.w3.org/2000/svg">
<g filter="url(#filter0_d)">
<path d="M4.93308 4.8228C4.41776 4.32016 5.03152 3.74767 6.30397 3.5441L21.5102 1.11143C22.7826 0.90787 24.2319 1.15032 24.7472 1.65296L34.4513 11.1181C34.9666 11.6208 34.3528 12.1933 33.0804 12.3968L17.8742 14.8295C16.6018 15.0331 15.1525 14.7906 14.6372 14.288L4.93308 4.8228Z" fill="#FFF6E0"/>
</g>
<path fill-rule="evenodd" clip-rule="evenodd" d="M21.2493 1.77345L7.65758 3.94784C6.63962 4.11069 6.14861 4.56868 6.56087 4.97079L15.5455 13.7343C15.9578 14.1364 17.1172 14.3303 18.1352 14.1675L31.7269 11.9931C32.7449 11.8303 33.2359 11.3723 32.8236 10.9702L23.8389 2.20667C23.4267 1.80456 22.2672 1.6106 21.2493 1.77345ZM7.47096 3.76581C6.19851 3.96938 5.58475 4.54187 6.10008 5.04451L15.0848 13.808C15.6001 14.3106 17.0494 14.5531 18.3218 14.3495L31.9135 12.1751C33.186 11.9716 33.7997 11.3991 33.2844 10.8964L24.2997 2.13295C23.7844 1.63031 22.3351 1.38786 21.0627 1.59143L7.47096 3.76581Z" fill="#AF9A65"/>
<g filter="url(#filter1_d)">
<path d="M14.7002 1.37471C14.7002 0.83241 15.8131 0.392792 17.1859 0.392792H33.5918C34.9647 0.392792 36.0776 0.832411 36.0776 1.37471V11.5866C36.0776 12.1289 34.9647 12.5686 33.5918 12.5686H17.1859C15.8131 12.5686 14.7002 12.1289 14.7002 11.5866V1.37471Z" fill="#FFF6E0"/>
</g>
<path fill-rule="evenodd" clip-rule="evenodd" d="M32.7209 0.967685H18.0569C16.9586 0.967685 16.0683 1.31938 16.0683 1.75322V11.2081C16.0683 11.6419 16.9586 11.9936 18.0569 11.9936H32.7209C33.8192 11.9936 34.7095 11.6419 34.7095 11.2081V1.75322C34.7095 1.31938 33.8192 0.967685 32.7209 0.967685ZM18.0569 0.771301C16.6841 0.771301 15.5712 1.21092 15.5712 1.75322V11.2081C15.5712 11.7504 16.6841 12.19 18.0569 12.19H32.7209C34.0938 12.19 35.2067 11.7504 35.2067 11.2081V1.75322C35.2067 1.21092 34.0938 0.771301 32.7209 0.771301H18.0569Z" fill="#AF9A65"/>
<g filter="url(#filter2_d)">
<path d="M30.4799 0.876092C31.0998 0.39224 32.5954 0.198526 33.8203 0.44342L48.4581 3.36999C49.6829 3.61489 50.1733 4.20565 49.5534 4.68951L37.8791 13.8009C37.2591 14.2847 35.7636 14.4784 34.5387 14.2335L19.9009 11.307C18.676 11.0621 18.1856 10.4713 18.8056 9.98745L30.4799 0.876092Z" fill="#FFF6E0"/>
</g>
<path fill-rule="evenodd" clip-rule="evenodd" d="M47.0238 3.72759L33.9401 1.11174C32.9602 0.915826 31.7638 1.0708 31.2678 1.45788L20.459 9.89379C19.963 10.2809 20.3553 10.7535 21.3352 10.9494L34.4189 13.5652C35.3988 13.7612 36.5952 13.6062 37.0912 13.2191L47.9 4.7832C48.396 4.39612 48.0037 3.92351 47.0238 3.72759ZM34.1646 0.936523C32.9397 0.691629 31.4442 0.885343 30.8242 1.3692L20.0154 9.8051C19.3955 10.289 19.8858 10.8797 21.1107 11.1246L34.1944 13.7405C35.4193 13.9854 36.9148 13.7916 37.5348 13.3078L48.3436 4.87189C48.9636 4.38803 48.4732 3.79727 47.2483 3.55237L34.1646 0.936523Z" fill="#AF9A65"/>
<defs>
<filter id="filter0_d" x="0.75061" y="1.03937" width="37.8831" height="21.8622" filterUnits="userSpaceOnUse" color-interpolation-filters="sRGB">
<feFlood flood-opacity="0" result="BackgroundImageFix"/>
<feColorMatrix in="SourceAlpha" type="matrix" values="0 0 0 0 0 0 0 0 0 0 0 0 0 0 0 0 0 0 127 0"/>
<feOffset dy="4"/>
<feGaussianBlur stdDeviation="2"/>
<feColorMatrix type="matrix" values="0 0 0 0 0 0 0 0 0 0 0 0 0 0 0 0 0 0 0.25 0"/>
<feBlend mode="normal" in2="BackgroundImageFix" result="effect1_dropShadow"/>
<feBlend mode="normal" in="SourceGraphic" in2="effect1_dropShadow" result="shape"/>
</filter>
<filter id="filter1_d" x="10.7002" y="0.392792" width="29.3774" height="20.1758" filterUnits="userSpaceOnUse" color-interpolation-filters="sRGB">
<feFlood flood-opacity="0" result="BackgroundImageFix"/>
<feColorMatrix in="SourceAlpha" type="matrix" values="0 0 0 0 0 0 0 0 0 0 0 0 0 0 0 0 0 0 127 0"/>
<feOffset dy="4"/>
<feGaussianBlur stdDeviation="2"/>
<feColorMatrix type="matrix" values="0 0 0 0 0 0 0 0 0 0 0 0 0 0 0 0 0 0 0.25 0"/>
<feBlend mode="normal" in2="BackgroundImageFix" result="effect1_dropShadow"/>
<feBlend mode="normal" in="SourceGraphic" in2="effect1_dropShadow" result="shape"/>
</filter>
<filter id="filter2_d" x="14.5371" y="0.337372" width="39.2846" height="22.0022" filterUnits="userSpaceOnUse" color-interpolation-filters="sRGB">
<feFlood flood-opacity="0" result="BackgroundImageFix"/>
<feColorMatrix in="SourceAlpha" type="matrix" values="0 0 0 0 0 0 0 0 0 0 0 0 0 0 0 0 0 0 127 0"/>
<feOffset dy="4"/>
<feGaussianBlur stdDeviation="2"/>
<feColorMatrix type="matrix" values="0 0 0 0 0 0 0 0 0 0 0 0 0 0 0 0 0 0 0.25 0"/>
<feBlend mode="normal" in2="BackgroundImageFix" result="effect1_dropShadow"/>
<feBlend mode="normal" in="SourceGraphic" in2="effect1_dropShadow" result="shape"/>
</filter>
</defs>
</svg>
